<svg width="493" height="191" viewBox="0 0 493 191" fill="none" xmlns="http://www.w3.org/2000/svg">
<rect width="493" height="191" fill="none"/>
<g id="welcome cat no text light">
<g id="catRight">
<path id="Vector" d="M409.344 185.224C408.949 185.23 408.555 185.235 408.155 185.235C407.755 185.235 407.36 185.23 406.965 185.224C386.047 184.749 370.885 171.676 374.744 157.959L384.155 124.499L386.533 116.032L428.695 116.751L431.257 125.034L441.344 157.635C445.614 171.427 430.452 184.749 409.344 185.224Z" fill="#FFD179"/>
<path id="Vector_2" opacity="0.2" d="M431.257 125.034C424.068 129.144 415.913 131.261 407.633 131.167C399.353 131.073 391.248 128.771 384.155 124.499L386.533 116.032L428.695 116.751L431.257 125.034Z" fill="black"/>
<path id="Vector_3" d="M429.478 159.07C431.299 152.28 437.285 142.486 454.072 130.678C483.35 110.08 465.885 94.6363 465.128 93.9891C463.54 92.6318 463.775 91.1078 465.673 90.5871C466.776 90.3666 467.913 90.3844 469.008 90.6394C470.104 90.8944 471.132 91.3807 472.024 92.0656C472.972 92.8498 494.842 111.53 461.805 134.769C432.072 155.687 438.394 169.341 438.466 169.472C439.263 170.932 437.985 172.101 435.61 172.085C433.235 172.069 430.662 170.874 429.862 169.415C429.694 169.106 427.781 165.39 429.478 159.07Z" fill="#FFD179"/>
<path id="Vector_4" d="M388.695 190.101C388.057 190.101 387.424 189.975 386.834 189.731C386.243 189.486 385.707 189.128 385.255 188.676C384.804 188.224 384.445 187.688 384.201 187.097C383.956 186.507 383.831 185.874 383.831 185.235V164.15C383.831 162.86 384.343 161.622 385.255 160.709C386.168 159.797 387.405 159.284 388.695 159.284C389.986 159.284 391.223 159.797 392.135 160.709C393.048 161.622 393.56 162.86 393.56 164.15V185.235C393.56 185.874 393.434 186.507 393.19 187.097C392.945 187.688 392.587 188.224 392.135 188.676C391.684 189.128 391.147 189.486 390.557 189.731C389.967 189.975 389.334 190.101 388.695 190.101V190.101Z" fill="#FFD179"/>
<path id="Vector_5" d="M392.961 140.044C392.694 140.624 392.315 141.146 391.846 141.58C391.378 142.015 390.828 142.352 390.229 142.574C389.629 142.795 388.992 142.897 388.354 142.872C387.716 142.848 387.088 142.697 386.508 142.43L367.357 133.617C366.186 133.077 365.278 132.094 364.831 130.884C364.385 129.674 364.436 128.337 364.975 127.165C365.514 125.994 366.496 125.084 367.705 124.636C368.914 124.188 370.252 124.239 371.424 124.776L390.575 133.589C391.155 133.857 391.677 134.235 392.111 134.704C392.545 135.173 392.883 135.723 393.104 136.322C393.326 136.922 393.427 137.559 393.403 138.197C393.378 138.836 393.228 139.463 392.961 140.044V140.044Z" fill="#FFD179"/>
<path id="Vector_6" d="M423.349 140.044C423.616 140.624 423.994 141.146 424.463 141.58C424.932 142.015 425.482 142.352 426.081 142.574C426.68 142.795 427.317 142.897 427.956 142.872C428.594 142.847 429.221 142.697 429.802 142.43L448.953 133.617C450.125 133.078 451.035 132.095 451.482 130.884C451.93 129.674 451.878 128.335 451.339 127.163C450.8 125.991 449.817 125.081 448.607 124.633C447.397 124.185 446.058 124.237 444.886 124.776L425.735 133.589C425.154 133.856 424.632 134.235 424.198 134.704C423.764 135.173 423.427 135.723 423.205 136.322C422.984 136.922 422.882 137.559 422.907 138.197C422.932 138.836 423.082 139.463 423.349 140.044V140.044Z" fill="#FFD179"/>
<path id="Vector_7" d="M427.614 190.101C428.253 190.101 428.885 189.975 429.476 189.731C430.066 189.486 430.602 189.128 431.054 188.676C431.506 188.224 431.864 187.688 432.108 187.097C432.353 186.507 432.479 185.874 432.479 185.235V164.15C432.479 162.86 431.966 161.622 431.054 160.709C430.141 159.797 428.904 159.284 427.614 159.284C426.324 159.284 425.086 159.797 424.174 160.709C423.262 161.622 422.749 162.86 422.749 164.15V185.235C422.749 185.874 422.875 186.507 423.119 187.097C423.364 187.688 423.722 188.224 424.174 188.676C424.626 189.128 425.162 189.486 425.752 189.731C426.342 189.975 426.975 190.101 427.614 190.101V190.101Z" fill="#FFD179"/>
<path id="Vector_8" d="M447.945 53.5953C448.365 53.0657 448.669 52.4529 448.835 51.7974C449.002 51.142 449.027 50.4586 448.91 49.7925L446.263 34.2134L443.615 18.6344C443.472 17.7932 443.11 17.0045 442.566 16.3475C442.022 15.6905 441.314 15.1885 440.514 14.8917C439.714 14.595 438.851 14.514 438.01 14.657C437.169 14.8 436.38 15.1619 435.723 15.7063L423.558 25.7893L416.229 31.8639C411.341 30.9946 406.345 30.9192 401.433 31.6407L394.373 25.7893L382.208 15.7063C381.551 15.1619 380.763 14.8 379.922 14.657C379.081 14.514 378.217 14.595 377.417 14.8917C376.617 15.1885 375.91 15.6906 375.365 16.3475C374.821 17.0045 374.459 17.7932 374.316 18.6344L371.669 34.2135L369.021 49.7925C368.88 50.6113 368.953 51.4528 369.233 52.235C364.695 59.1924 362.105 67.2389 361.73 75.5373C361.355 83.8357 363.211 92.0829 367.103 99.421C370.995 106.759 376.782 112.92 383.862 117.263C390.941 121.606 399.055 123.972 407.359 124.116C415.663 124.259 423.853 122.175 431.079 118.079C438.304 113.983 444.3 108.026 448.444 100.827C452.587 93.6275 454.726 85.4493 454.638 77.1429C454.551 68.8365 452.239 60.7054 447.945 53.5953Z" fill="#FFD179"/>
<path id="Vector_9" d="M380.989 22.0903C380.7 22.0907 380.414 22.1427 380.144 22.2437C379.747 22.3884 379.395 22.6363 379.125 22.962C378.855 23.2876 378.677 23.6792 378.609 24.0966L375.398 42.9892C375.327 43.4057 375.367 43.8335 375.514 44.2295C375.661 44.6256 375.909 44.976 376.235 45.2455C376.56 45.515 376.95 45.6942 377.367 45.7649C377.783 45.8357 378.211 45.7956 378.607 45.6487L396.57 38.9835C396.966 38.8366 397.316 38.588 397.586 38.2628C397.855 37.9376 398.034 37.5472 398.105 37.1308C398.176 36.7144 398.136 36.2867 397.989 35.8907C397.842 35.4947 397.594 35.1443 397.268 34.8748L397.268 34.8742L382.516 22.6471C382.088 22.2884 381.547 22.0914 380.989 22.0903V22.0903Z" fill="#FFF3F4"/>
<path id="Vector_10" d="M436.942 22.0903C436.384 22.0914 435.844 22.2884 435.415 22.6471L420.663 34.8748C420.338 35.1443 420.089 35.4947 419.942 35.8907C419.796 36.2867 419.755 36.7144 419.826 37.1308C419.897 37.5472 420.076 37.9376 420.346 38.2628C420.615 38.588 420.965 38.8366 421.361 38.9835L439.325 45.6487C439.721 45.7956 440.148 45.8357 440.565 45.7649C440.981 45.6942 441.371 45.515 441.697 45.2455C442.022 44.976 442.27 44.6256 442.417 44.2295C442.564 43.8335 442.604 43.4057 442.533 42.9892L439.323 24.0966C439.254 23.6792 439.076 23.2876 438.806 22.962C438.536 22.6363 438.185 22.3884 437.787 22.2437C437.517 22.1427 437.231 22.0907 436.942 22.0903Z" fill="#FFF3F4"/>
<path id="Vector_11" d="M408.155 90.6218C411.737 90.6218 414.641 87.7171 414.641 84.134C414.641 80.5509 411.737 77.6462 408.155 77.6462C404.572 77.6462 401.668 80.5509 401.668 84.134C401.668 87.7171 404.572 90.6218 408.155 90.6218Z" fill="#4A4A4A"/>
<path id="Vector_12" d="M408.155 82.5121C410.543 82.5121 412.479 81.7859 412.479 80.8901C412.479 79.9944 410.543 79.2682 408.155 79.2682C405.767 79.2682 403.831 79.9944 403.831 80.8901C403.831 81.7859 405.767 82.5121 408.155 82.5121Z" fill="#FFD179"/>
<path id="Vector_13" d="M404.912 87.9186H410.858V95.2173C410.858 95.6078 410.781 95.9945 410.631 96.3553C410.482 96.716 410.263 97.0438 409.987 97.32C409.711 97.5961 409.383 97.8151 409.022 97.9646C408.662 98.114 408.275 98.1909 407.885 98.1909V98.1909C407.096 98.1909 406.34 97.8776 405.782 97.32C405.225 96.7623 404.912 96.006 404.912 95.2173V87.9186H404.912Z" fill="#FF6584"/>
<path id="Vector_14" d="M408.516 14.3293C408.204 14.976 407.901 15.6298 407.616 16.2968C404.262 24.122 403.131 32.7211 404.347 41.1479C404.956 40.2647 405.595 39.3446 406.246 38.4143C404.852 30.3267 405.636 22.014 408.516 14.3293V14.3293Z" fill="#FFD179"/>
<path id="Vector_15" d="M413.38 20.2764C413.069 20.9231 412.766 21.5768 412.481 22.2438C409.127 30.069 407.995 38.6681 409.212 47.0949C409.82 46.2117 410.46 45.2916 411.11 44.3613C409.717 36.2738 410.501 27.961 413.38 20.2764V20.2764Z" fill="#FFD179"/>
<path id="Vector_16" d="M428.379 137.031L427.694 128.313L427.008 119.596C426.971 119.125 426.811 118.673 426.544 118.283C426.276 117.894 425.911 117.582 425.485 117.379C425.059 117.176 424.587 117.088 424.117 117.125C423.646 117.162 423.194 117.323 422.804 117.59L415.599 122.542L410.338 126.159C410.001 125.765 409.584 125.449 409.114 125.232C408.643 125.015 408.132 124.903 407.614 124.903C407.096 124.903 406.585 125.015 406.114 125.232C405.644 125.449 405.227 125.765 404.89 126.159L399.629 122.542L392.424 117.59C392.035 117.323 391.582 117.162 391.111 117.125C390.641 117.088 390.169 117.176 389.743 117.379C389.317 117.582 388.952 117.894 388.684 118.283C388.417 118.673 388.257 119.125 388.22 119.596L387.534 128.313L386.849 137.031C386.812 137.501 386.9 137.973 387.103 138.4C387.306 138.826 387.618 139.191 388.007 139.458C388.396 139.726 388.849 139.886 389.319 139.923C389.79 139.96 390.262 139.872 390.688 139.669L398.578 135.904L405.062 132.81C405.395 133.148 405.793 133.417 406.231 133.6C406.669 133.783 407.139 133.878 407.614 133.878C408.089 133.878 408.559 133.783 408.997 133.6C409.435 133.417 409.833 133.148 410.166 132.81L416.65 135.904L424.54 139.669C424.966 139.872 425.438 139.96 425.909 139.923C426.379 139.886 426.832 139.726 427.221 139.458C427.61 139.191 427.922 138.826 428.125 138.4C428.328 137.973 428.416 137.501 428.379 137.031V137.031Z" fill="#4A4A4A"/>
<path id="Vector_17" d="M399.506 78.7275C400.402 78.7275 401.128 78.0014 401.128 77.1056C401.128 76.2098 400.402 75.4836 399.506 75.4836C398.611 75.4836 397.885 76.2098 397.885 77.1056C397.885 78.0014 398.611 78.7275 399.506 78.7275Z" fill="#4A4A4A"/>
<path id="Vector_18" d="M416.803 78.7275C417.699 78.7275 418.425 78.0014 418.425 77.1056C418.425 76.2098 417.699 75.4836 416.803 75.4836C415.908 75.4836 415.182 76.2098 415.182 77.1056C415.182 78.0014 415.908 78.7275 416.803 78.7275Z" fill="#4A4A4A"/>
</g>
<g id="catLeft">
<path id="Vector_19" d="M94.3962 170.895C94.7908 170.901 95.1854 170.906 95.5854 170.906C95.9853 170.906 96.3799 170.901 96.7745 170.895C117.693 170.419 132.855 157.347 128.996 143.63L119.585 110.17L117.207 101.703L75.0449 102.422L72.4828 110.705L62.3964 143.306C58.1261 157.098 73.2882 170.419 94.3962 170.895Z" fill="#FFD179"/>
<path id="Vector_20" opacity="0.2" d="M72.4829 110.705C79.6718 114.815 87.8269 116.932 96.1068 116.838C104.387 116.744 112.492 114.442 119.585 110.17L117.207 101.703L75.045 102.422L72.4829 110.705Z" fill="black"/>
<path id="Vector_21" d="M69.1413 140.775C64.5906 135.418 54.9903 129.128 34.7655 125.639C-0.508124 119.553 8.67033 98.1197 9.0775 97.2109C9.93179 95.3046 9.06787 94.0275 7.12934 94.3693C6.03828 94.642 5.0181 95.1448 4.1372 95.8441C3.25631 96.5433 2.53505 97.4229 2.02177 98.4237C1.50054 99.5383 -10.2747 125.782 29.5272 132.647C65.349 138.827 65.4768 153.874 65.4673 154.024C65.3719 155.684 67.0265 156.194 69.1667 155.163C71.3069 154.132 73.1211 151.95 73.2193 150.29C73.2392 149.939 73.3786 145.761 69.1413 140.775Z" fill="#FFD179"/>
<path id="Vector_22" d="M115.045 175.772C115.684 175.772 116.316 175.646 116.906 175.401C117.497 175.157 118.033 174.799 118.485 174.347C118.936 173.895 119.295 173.358 119.539 172.768C119.784 172.178 119.91 171.545 119.91 170.906V149.821C119.908 148.531 119.395 147.295 118.483 146.384C117.57 145.473 116.334 144.961 115.045 144.961C113.756 144.961 112.519 145.473 111.607 146.384C110.695 147.295 110.181 148.531 110.18 149.821V170.906C110.18 171.545 110.306 172.178 110.55 172.768C110.795 173.358 111.153 173.895 111.605 174.347C112.057 174.799 112.593 175.157 113.183 175.401C113.773 175.646 114.406 175.772 115.045 175.772V175.772Z" fill="#FFD179"/>
<path id="Vector_23" d="M110.779 125.714C111.046 126.295 111.425 126.817 111.894 127.251C112.363 127.685 112.912 128.023 113.512 128.244C114.111 128.466 114.748 128.567 115.386 128.543C116.025 128.518 116.652 128.368 117.232 128.101L136.383 119.288C136.964 119.021 137.487 118.643 137.922 118.174C138.357 117.705 138.695 117.155 138.917 116.555C139.139 115.956 139.24 115.318 139.216 114.679C139.192 114.04 139.041 113.412 138.774 112.832C138.507 112.251 138.128 111.728 137.659 111.294C137.19 110.86 136.639 110.522 136.04 110.301C135.44 110.079 134.802 109.978 134.164 110.003C133.525 110.028 132.897 110.179 132.317 110.447L113.165 119.26C112.585 119.527 112.063 119.906 111.629 120.375C111.195 120.844 110.858 121.394 110.636 121.993C110.414 122.592 110.313 123.229 110.338 123.868C110.362 124.506 110.512 125.134 110.779 125.714V125.714Z" fill="#FFD179"/>
<path id="Vector_24" d="M80.3914 125.714C80.1244 126.295 79.7457 126.817 79.2769 127.251C78.8081 127.685 78.2584 128.023 77.6592 128.244C77.06 128.466 76.423 128.567 75.7846 128.543C75.1462 128.518 74.5189 128.368 73.9385 128.101L54.7873 119.288C54.2063 119.021 53.6834 118.643 53.2488 118.174C52.8141 117.705 52.4761 117.155 52.254 116.555C52.032 115.956 51.9303 115.318 51.9547 114.679C51.9792 114.04 52.1293 113.412 52.3965 112.832C52.6637 112.251 53.0428 111.728 53.512 111.294C53.9812 110.86 54.5314 110.522 55.1312 110.301C55.7309 110.079 56.3684 109.978 57.0072 110.003C57.646 110.028 58.2736 110.179 58.854 110.447L78.0053 119.26C78.5857 119.527 79.1078 119.906 79.5418 120.375C79.9758 120.844 80.3132 121.394 80.5348 121.993C80.7564 122.592 80.8578 123.229 80.8332 123.868C80.8086 124.506 80.6584 125.134 80.3914 125.714Z" fill="#FFD179"/>
<path id="Vector_25" d="M76.1261 175.772C75.4872 175.772 74.8546 175.646 74.2644 175.401C73.6741 175.157 73.1378 174.799 72.6861 174.347C72.2343 173.895 71.876 173.358 71.6315 172.768C71.387 172.178 71.2612 171.545 71.2612 170.906V149.821C71.2628 148.531 71.776 147.295 72.6882 146.384C73.6003 145.473 74.8368 144.961 76.1261 144.961C77.4153 144.961 78.6518 145.473 79.5639 146.384C80.4761 147.295 80.9893 148.531 80.9909 149.821V170.906C80.9909 171.545 80.8651 172.178 80.6206 172.768C80.3761 173.358 80.0178 173.895 79.566 174.347C79.1143 174.799 78.578 175.157 77.9878 175.401C77.3975 175.646 76.7649 175.772 76.1261 175.772V175.772Z" fill="#FFD179"/>
<path id="Vector_26" d="M134.507 37.9057C134.788 37.1235 134.861 36.282 134.719 35.4632L132.072 19.8841L129.424 4.30505C129.281 3.46389 128.919 2.67518 128.375 2.01821C127.831 1.36124 127.123 0.85915 126.323 0.562399C125.523 0.265648 124.66 0.184688 123.819 0.327674C122.978 0.47066 122.189 0.832551 121.532 1.37696L109.367 11.4599L102.307 17.3114C97.3952 16.5899 92.3992 16.6652 87.5114 17.5345L80.1822 11.4599L68.017 1.37694C67.3602 0.832528 66.5716 0.47064 65.7306 0.327653C64.8897 0.184666 64.0258 0.265615 63.2261 0.562367C62.4263 0.859118 61.7186 1.36121 61.1743 2.01819C60.63 2.67516 60.2682 3.46387 60.1253 4.30503L57.4776 19.8841L54.8299 35.4632C54.713 36.1293 54.7386 36.8126 54.9051 37.4681C55.0715 38.1236 55.375 38.7363 55.7954 39.266C51.4955 46.3777 49.1796 54.5121 49.089 62.8227C48.9983 71.1333 51.1361 79.3163 55.2798 86.5202C59.4236 93.7241 65.4219 99.6856 72.6505 103.784C79.8792 107.883 88.0739 109.969 96.3821 109.826C104.69 109.682 112.808 107.314 119.891 102.968C126.974 98.6219 132.762 92.4567 136.655 85.1139C140.547 77.7711 142.401 69.5191 142.024 61.2166C141.646 52.9141 139.05 44.8646 134.507 37.9057H134.507Z" fill="#FFD179"/>
<path id="Vector_27" d="M121.225 8.31786L106.472 20.545L106.472 20.5455C106.147 20.8151 105.898 21.1654 105.751 21.5614C105.605 21.9574 105.565 22.3851 105.635 22.8015C105.706 23.2179 105.885 23.6084 106.155 23.9336C106.424 24.2588 106.774 24.5073 107.17 24.6543L125.134 31.3194C125.53 31.4664 125.957 31.5065 126.374 31.4357C126.79 31.3649 127.18 31.1858 127.506 30.9162C127.831 30.6467 128.079 30.2963 128.226 29.9003C128.373 29.5042 128.413 29.0765 128.343 28.66L125.132 9.76741C125.063 9.35001 124.885 8.95837 124.615 8.63273C124.345 8.30708 123.994 8.05917 123.596 7.91449C123.326 7.81346 123.04 7.76152 122.751 7.76111C122.193 7.76215 121.653 7.95918 121.225 8.31786V8.31786Z" fill="#FFF3F4"/>
<path id="Vector_28" d="M65.9532 7.91449C65.5558 8.05917 65.2041 8.30707 64.9342 8.63272C64.6643 8.95836 64.486 9.35001 64.4176 9.76741L61.2069 28.66C61.1361 29.0765 61.1762 29.5042 61.3231 29.9003C61.47 30.2963 61.7185 30.6467 62.0437 30.9162C62.369 31.1858 62.7594 31.3649 63.1757 31.4357C63.5921 31.5065 64.0198 31.4664 64.4158 31.3194L82.3791 24.6543C82.775 24.5073 83.1253 24.2588 83.3947 23.9336C83.6642 23.6083 83.8433 23.2179 83.9141 22.8015C83.9848 22.3851 83.9448 21.9574 83.7979 21.5614C83.6511 21.1654 83.4026 20.8151 83.0775 20.5455L68.3249 8.31786C67.8968 7.95918 67.3564 7.76215 66.798 7.76111C66.5095 7.76152 66.2234 7.81346 65.9532 7.91449Z" fill="#FFF3F4"/>
<path id="Vector_29" d="M95.5856 76.2925C99.1679 76.2925 102.072 73.3878 102.072 69.8047C102.072 66.2216 99.1679 63.3169 95.5856 63.3169C92.0032 63.3169 89.0991 66.2216 89.0991 69.8047C89.0991 73.3878 92.0032 76.2925 95.5856 76.2925Z" fill="#4B4B4B"/>
<path id="Vector_30" d="M95.5855 68.1827C97.9738 68.1827 99.9098 67.4566 99.9098 66.5608C99.9098 65.665 97.9738 64.9388 95.5855 64.9388C93.1973 64.9388 91.2612 65.665 91.2612 66.5608C91.2612 67.4566 93.1973 68.1827 95.5855 68.1827Z" fill="#FFD179"/>
<path id="Vector_31" d="M95.8557 83.8616C95.4652 83.8616 95.0787 83.7847 94.718 83.6352C94.3573 83.4858 94.0295 83.2668 93.7535 82.9906C93.4774 82.7145 93.2584 82.3867 93.109 82.0259C92.9596 81.6651 92.8827 81.2785 92.8827 80.888V73.5892H98.8286V80.888C98.8286 81.2785 98.7517 81.6651 98.6023 82.0259C98.4529 82.3867 98.2339 82.7145 97.9579 82.9906C97.6818 83.2668 97.3541 83.4858 96.9934 83.6352C96.6327 83.7847 96.2461 83.8616 95.8557 83.8616V83.8616Z" fill="#FF6584"/>
<path id="Vector_32" d="M95.2246 0C95.5364 0.646704 95.8391 1.3004 96.1238 1.96747C99.4784 9.79262 100.61 18.3917 99.3932 26.8185C98.7846 25.9353 98.1451 25.0152 97.4945 24.0849C98.8878 15.9974 98.1043 7.68468 95.2246 0V0Z" fill="#FFD179"/>
<path id="Vector_33" d="M90.3596 5.94714C90.6714 6.59385 90.9741 7.24755 91.2589 7.91461C94.6135 15.7398 95.7447 24.3389 94.5282 32.7657C93.9197 31.8825 93.2801 30.9624 92.6295 30.0321C94.0228 21.9445 93.2394 13.6318 90.3596 5.94714V5.94714Z" fill="#FFD179"/>
<path id="catLefRibbon" d="M75.3611 28.0879L76.0464 19.3705L76.7317 10.6531C76.7687 10.1825 76.9289 9.72981 77.1963 9.34069C77.4636 8.95157 77.8286 8.6397 78.2547 8.43641C78.6807 8.23312 79.1527 8.14558 79.6233 8.1826C80.0939 8.21961 80.5465 8.37987 80.9355 8.64727L88.1408 13.5996L93.4023 17.2159C93.7385 16.8221 94.1562 16.5059 94.6264 16.2891C95.0966 16.0723 95.6082 15.96 96.126 15.96C96.6438 15.96 97.1554 16.0723 97.6256 16.2891C98.0958 16.5059 98.5135 16.8221 98.8497 17.2159L104.111 13.5996L111.316 8.64727C111.706 8.37987 112.158 8.21961 112.629 8.1826C113.099 8.14558 113.571 8.23312 113.997 8.43641C114.423 8.6397 114.788 8.95157 115.056 9.34069C115.323 9.72981 115.483 10.1825 115.52 10.6531L116.206 19.3705L116.891 28.0879C116.928 28.5585 116.84 29.0307 116.637 29.4568C116.434 29.8829 116.122 30.248 115.733 30.5154C115.344 30.7828 114.891 30.9431 114.421 30.9801C113.95 31.0171 113.478 30.9295 113.052 30.7263L105.162 26.9612L98.6783 23.8676C98.3448 24.2057 97.9473 24.4742 97.5092 24.6574C97.071 24.8406 96.6009 24.935 96.126 24.935C95.6511 24.935 95.1809 24.8406 94.7427 24.6574C94.3046 24.4742 93.9072 24.2057 93.5736 23.8676L87.0903 26.9612L79.1997 30.7263C78.7737 30.9296 78.3017 31.0171 77.8311 30.9801C77.3605 30.9431 76.9079 30.7828 76.5189 30.5155C76.1299 30.2481 75.8181 29.8829 75.6148 29.4568C75.4116 29.0307 75.3241 28.5585 75.3611 28.0879V28.0879Z" fill="#4A4A4A"/>
<path id="catLefteye2" d="M102.612 62.7763C102.612 63.6721 103.338 62.7763 104.234 62.7763C105.13 62.7763 105.856 63.6721 105.856 62.7763C105.855 62.3467 105.683 61.935 105.379 61.6316C105.075 61.3281 104.663 61.1577 104.234 61.1577C103.804 61.1577 103.392 61.3281 103.088 61.6316C102.784 61.935 102.613 62.3467 102.612 62.7763V62.7763Z" fill="#4B4B4B"/>
<path id="catLefteye1" d="M88.5584 62.7763C88.5584 63.6721 87.8324 62.7763 86.9368 62.7763C86.0412 62.7763 85.3152 63.6721 85.3152 62.7763C85.3161 62.3467 85.4873 61.935 85.7913 61.6316C86.0954 61.3281 86.5073 61.1577 86.9368 61.1577C87.3663 61.1577 87.7782 61.3281 88.0823 61.6316C88.3863 61.935 88.5575 62.3467 88.5584 62.7763V62.7763Z" fill="#4B4B4B"/>
</g>
<g id="ballAll">
<g id="ballGRight">
<path id="ball4" d="M9.79311 182.376C13.2873 182.376 16.1199 179.542 16.1199 176.047C16.1199 172.553 13.2873 169.719 9.79311 169.719C6.29891 169.719 3.46631 172.553 3.46631 176.047C3.46631 179.542 6.29891 182.376 9.79311 182.376Z" fill="#FFF3F4"/>
<path id="ball3" d="M165.854 112.063C169.348 112.063 172.181 109.23 172.181 105.735C172.181 102.24 169.348 99.4071 165.854 99.4071C162.36 99.4071 159.527 102.24 159.527 105.735C159.527 109.23 162.36 112.063 165.854 112.063Z" fill="#FFF3F4"/>
</g>
<g id="ballGLeft">
<path id="ball2" d="M293.796 131.048C297.29 131.048 300.123 128.214 300.123 124.719C300.123 121.225 297.29 118.391 293.796 118.391C290.302 118.391 287.469 121.225 287.469 124.719C287.469 128.214 290.302 131.048 293.796 131.048Z" fill="#FFF3F4"/>
<path id="ball1" d="M486.412 151.438C489.906 151.438 492.739 148.605 492.739 145.11C492.739 141.615 489.906 138.782 486.412 138.782C482.918 138.782 480.085 141.615 480.085 145.11C480.085 148.605 482.918 151.438 486.412 151.438Z" fill="#FFF3F4"/>
</g>
</g>
</g>
</svg>
