<svg width="610" height="405" viewBox="0 0 610 405" fill="none" xmlns="http://www.w3.org/2000/svg">
<g clip-path="url(#clip0_132_325)">
<path d="M309.021 113.829C303.582 104.835 297.137 95.2314 287.043 92.2945C275.354 88.8933 263.347 95.6498 253.162 102.317C222.702 122.257 193.37 143.866 165.297 167.046L165.328 167.395C187.183 165.888 209.039 164.381 230.894 162.874C246.684 161.785 263.017 160.546 276.971 153.078C282.267 150.243 287.428 146.458 293.429 146.194C300.884 145.866 307.384 151.072 312.492 156.511C342.709 188.683 351.453 237.883 385.353 266.149C363.977 213.438 338.453 162.505 309.021 113.829V113.829Z" fill="#F2F2F2"/>
<path d="M494.76 386.711C491.418 382.492 490.053 381.504 486.757 377.246C459.919 342.539 434.693 306.661 411.08 269.61C395.041 244.447 379.797 218.8 365.349 192.67C358.471 180.247 351.781 167.727 345.279 155.11C340.234 145.327 335.302 135.485 330.482 125.584C329.104 122.757 327.765 119.916 326.432 117.069C323.292 110.373 320.21 103.645 316.901 97.0406C313.13 89.513 308.54 81.6214 301.616 76.564C298.465 74.1679 294.697 72.7182 290.752 72.3842C285.115 72.0201 279.914 74.3473 275.025 76.889C239.254 95.539 205.766 118.921 175.476 145.528C145.108 172.194 117.964 202.321 94.5981 235.294C93.8832 236.314 92.1927 235.339 92.9143 234.312C95.7555 230.295 98.653 226.321 101.607 222.39C138.335 173.549 183.369 131.549 234.651 98.3082C243.279 92.7178 252.069 87.3895 261.021 82.3234C265.533 79.7687 270.065 77.2465 274.674 74.8803C279.193 72.5596 283.991 70.473 289.153 70.395C306.719 70.122 315.815 90.0135 322.063 103.398C324.026 107.61 326.013 111.81 328.025 115.996C335.625 131.89 343.517 147.639 351.703 163.242C356.754 172.876 361.916 182.453 367.189 191.974C383.599 221.623 401.04 250.672 419.512 279.12C443.984 316.804 468.26 350.093 496.138 385.332C496.905 386.307 495.533 387.699 494.76 386.711Z" fill="#E4E4E4"/>
<path d="M173.74 135.706C172.719 134.568 171.705 133.431 170.678 132.293C162.577 123.335 153.885 114.482 142.761 109.346C137.457 106.82 131.666 105.478 125.792 105.413C119.72 105.433 113.784 107.025 108.173 109.255C105.521 110.315 102.926 111.517 100.372 112.798C97.4523 114.267 94.5851 115.834 91.7312 117.413C86.3739 120.378 81.0861 123.472 75.8678 126.696C65.485 133.112 55.4272 140.018 45.6947 147.413C40.6494 151.249 35.7083 155.21 30.8713 159.296C26.3724 163.092 21.9645 166.991 17.6476 170.991C16.7244 171.842 15.346 170.464 16.2692 169.613C17.4069 168.553 18.5577 167.5 19.7085 166.46C22.9592 163.522 26.2619 160.64 29.6167 157.814C35.7343 152.653 42.0104 147.691 48.4448 142.928C58.4505 135.517 68.8007 128.609 79.4954 122.204C84.8397 119.006 90.2575 115.942 95.7489 113.012C97.4069 112.128 99.0843 111.264 100.781 110.445C104.631 108.503 108.632 106.875 112.744 105.576C118.568 103.692 124.731 103.086 130.811 103.801C136.682 104.655 142.338 106.611 147.481 109.567C158.403 115.671 166.874 125.11 175.118 134.321C175.95 135.257 174.578 136.642 173.74 135.706Z" fill="#E4E4E4"/>
<path d="M397.533 228.532L423.706 218.96L436.701 214.208C440.933 212.66 445.155 210.898 449.53 209.79C453.332 208.704 457.369 208.756 461.142 209.938C464.507 211.183 467.587 213.092 470.199 215.552C472.868 218.009 475.351 220.66 477.628 223.484C480.457 226.884 483.244 230.319 486.044 233.742C497.6 247.873 509.08 262.065 520.485 276.318C531.889 290.571 543.217 304.884 554.469 319.258C565.749 333.667 576.951 348.136 588.075 362.666C589.438 364.446 590.799 366.227 592.16 368.008C592.911 368.993 594.606 368.022 593.844 367.024C582.637 352.348 571.353 337.733 559.99 323.177C548.6 308.587 537.131 294.058 525.583 279.592C514.035 265.126 502.409 250.722 490.706 236.381C487.79 232.808 484.869 229.24 481.944 225.675C479.476 222.668 477.036 219.628 474.33 216.829C469.362 211.692 463.155 207.152 455.725 207.028C451.356 206.956 447.128 208.342 443.07 209.81C438.694 211.393 434.329 213.005 429.959 214.603L403.604 224.242L397.015 226.651C395.846 227.079 396.351 228.964 397.533 228.532L397.533 228.532Z" fill="#E4E4E4"/>
<path d="M139.316 120.618C126.016 113.783 108.983 115.122 96.761 123.661C120.074 127.682 143.131 133.063 165.816 139.775C156.396 134.256 149.027 125.608 139.316 120.618Z" fill="#F2F2F2"/>
<path d="M96.6301 123.637L94.0696 125.718C94.9357 124.99 95.836 124.307 96.761 123.661C96.7173 123.653 96.6737 123.645 96.6301 123.637Z" fill="#F2F2F2"/>
<path d="M469.213 228.627C466.637 225.492 463.852 222.208 459.998 220.935L456.4 221.077C483.788 269.465 520.777 311.746 565.096 345.325C533.135 306.426 501.174 267.527 469.213 228.627Z" fill="#F2F2F2"/>
<path d="M245.487 202.76C247.152 208.808 250.903 214.072 256.076 217.622C258.076 218.983 260.443 220.289 261.127 222.61C261.487 224.089 261.265 225.65 260.507 226.971C259.751 228.274 258.831 229.476 257.769 230.546L257.672 230.909C252.709 227.968 247.987 224.248 245.245 219.172C242.504 214.097 242.121 207.445 245.487 202.76" fill="#F2F2F2"/>
<path d="M410.729 346.707C412.394 352.755 416.145 358.019 421.318 361.569C423.318 362.93 425.685 364.236 426.369 366.557C426.729 368.036 426.507 369.597 425.749 370.918C424.993 372.221 424.073 373.423 423.011 374.492L422.914 374.856C417.951 371.915 413.229 368.195 410.487 363.119C407.746 358.044 407.363 351.391 410.729 346.707" fill="#F2F2F2"/>
<path d="M80.9542 336.779C82.6192 342.828 86.3701 348.092 91.5433 351.641C93.5433 353.003 95.9096 354.309 96.5938 356.629C96.9538 358.109 96.732 359.67 95.9743 360.99C95.2179 362.294 94.2977 363.495 93.2359 364.565L93.139 364.928C88.1757 361.987 83.4539 358.267 80.7123 353.192C77.9707 348.116 77.5879 341.464 80.9542 336.779" fill="#F2F2F2"/>
<path d="M460.443 72.328C480.419 72.328 496.612 56.1368 496.612 36.164C496.612 16.1912 480.419 0 460.443 0C440.468 0 424.274 16.1912 424.274 36.164C424.274 56.1368 440.468 72.328 460.443 72.328Z" fill="#FFD179"/>
<path d="M525.714 8.41725C508.185 6.0482 488.173 15.5215 483.63 32.6142C482.485 29.5751 480.403 26.9786 477.686 25.1999C474.968 23.4211 471.756 22.5522 468.512 22.7186C465.268 22.8851 462.161 24.0782 459.64 26.1258C457.119 28.1733 455.314 30.9692 454.487 34.1095L456.493 35.5466C494.058 43.6688 532.942 43.493 570.432 35.0315C558.239 22.2189 543.243 10.7863 525.714 8.41725Z" fill="#F0F0F0"/>
<path d="M450.54 56.6359C433.011 54.2669 412.999 63.7402 408.455 80.8329C407.31 77.7938 405.229 75.1973 402.511 73.4186C399.794 71.6398 396.581 70.7709 393.337 70.9373C390.094 71.1037 386.987 72.2969 384.466 74.3444C381.945 76.392 380.14 79.1879 379.312 82.3282L381.319 83.7653C418.883 91.8875 457.768 91.7117 495.257 83.2502C483.064 70.4376 468.069 59.005 450.54 56.6359Z" fill="#F0F0F0"/>
<path d="M603.532 65.7534C603.459 65.7536 603.387 65.7423 603.318 65.7202C415.802 6.42669 250.533 14.1804 144.909 31.126C130.535 33.4313 116.122 36.0938 102.071 39.0403C98.4841 39.7917 94.7625 40.597 91.0102 41.4356C86.5289 42.4335 82.1072 43.4611 77.8673 44.4888C76.0361 44.9223 74.2407 45.3592 72.4811 45.7996C69.8157 46.4575 67.1113 47.143 64.2121 47.8964C60.9726 48.7316 57.6812 49.6076 54.4271 50.5002C54.4152 50.5044 54.4031 50.5078 54.3908 50.5105L54.3911 50.5113C50.7156 51.5146 47.0595 52.5471 43.524 53.5782C41.6104 54.1308 39.7626 54.6758 37.9927 55.2139C37.795 55.2686 37.6198 55.3212 37.4422 55.3752L37.0619 55.4909C36.8417 55.558 36.6242 55.6238 36.4068 55.6861L36.3929 55.6903L36.3932 55.691L35.8177 55.8697C35.1314 56.0775 34.4617 56.2803 33.803 56.4825C16.3959 61.8479 6.82664 65.6648 6.7321 65.7022C6.64565 65.7369 6.55323 65.7541 6.4601 65.7531C6.36698 65.752 6.27497 65.7326 6.18934 65.696C6.10371 65.6594 6.02613 65.6062 5.96103 65.5396C5.89593 65.473 5.84459 65.3943 5.80994 65.3078C5.77529 65.2214 5.75801 65.129 5.75908 65.0359C5.76015 64.9428 5.77955 64.8508 5.81617 64.7652C5.8528 64.6795 5.90593 64.602 5.97253 64.5369C6.03914 64.4718 6.11791 64.4205 6.20436 64.3858C6.29959 64.3484 15.9156 60.5121 33.3861 55.1267C34.0472 54.9238 34.7186 54.7209 35.407 54.5124L35.9417 54.3463C35.96 54.3393 35.9784 54.3338 35.9971 54.3282C36.2135 54.2666 36.4296 54.2008 36.6491 54.1344L37.0301 54.0187C37.2198 53.9612 37.4068 53.9045 37.5983 53.8518C39.3561 53.3172 41.2101 52.7709 43.1285 52.2162C46.6655 51.1844 50.325 50.1519 54.0033 49.1471C54.0147 49.143 54.0265 49.1402 54.0379 49.1367V49.136C57.3034 48.2407 60.607 47.3612 63.8569 46.5233C66.7605 45.7692 69.4701 45.0823 72.14 44.423C73.9071 43.9833 75.706 43.5454 77.5365 43.1094C81.7813 42.0804 86.212 41.0513 90.7013 40.0514C94.4596 39.2121 98.1873 38.4047 101.78 37.6527C115.853 34.7013 130.288 32.0346 144.685 29.7259C250.46 12.756 415.966 4.98978 603.745 64.3684C603.907 64.4194 604.045 64.5265 604.134 64.6702C604.224 64.814 604.258 64.985 604.233 65.1524C604.207 65.3197 604.122 65.4723 603.994 65.5825C603.865 65.6928 603.701 65.7534 603.532 65.7534V65.7534Z" fill="#CCCCCC"/>
<path d="M186.51 297.708C186.264 296.99 185.851 296.341 185.304 295.814C185.103 295.627 184.884 295.459 184.652 295.311C182.801 294.077 180.035 293.801 178.276 295.311C178.099 295.465 177.935 295.633 177.787 295.814C177.262 296.46 176.723 297.091 176.17 297.708C175.262 298.743 174.333 299.743 173.362 300.714C173.085 300.984 172.808 301.26 172.525 301.53C172.362 301.693 172.199 301.849 172.035 302.005C171.411 302.601 170.773 303.175 170.128 303.742C169.787 304.047 169.447 304.345 169.099 304.636C168.582 305.068 168.064 305.501 167.539 305.919C167.489 305.955 167.44 305.99 167.39 306.033C167.376 306.04 167.369 306.054 167.355 306.061C167.348 306.061 167.341 306.061 167.333 306.075C167.314 306.083 167.297 306.095 167.284 306.111C167.128 306.217 167.021 306.288 166.943 306.352C166.972 306.338 167 306.316 167.029 306.302C166.901 306.401 166.766 306.501 166.638 306.6C165.397 307.515 164.128 308.394 162.83 309.216C159.619 311.271 156.246 313.062 152.745 314.57C152.511 314.662 152.27 314.762 152.029 314.854C142.862 318.609 132.919 320.074 123.058 319.123C122.051 319.045 121.044 318.938 120.037 318.803C118.874 318.633 117.718 318.428 116.569 318.194C112.195 317.321 107.916 316.029 103.79 314.336C98.6283 311.973 93.7193 309.093 89.1377 305.742C88.4285 305.238 87.7122 304.735 86.996 304.246C87.8115 302.246 88.6129 300.246 89.393 298.232C89.7831 297.261 90.159 296.29 90.5278 295.311C93.4284 287.773 96.1517 280.165 98.7615 272.528C101.4 264.791 103.889 257.01 106.229 249.184C106.47 248.39 106.704 247.596 106.931 246.802C108.158 242.668 109.336 238.524 110.463 234.371C110.57 233.967 110.683 233.57 110.782 233.166C111.109 231.974 111.428 230.783 111.74 229.592C112.449 226.904 110.846 223.692 108.024 223.047C106.665 222.698 105.223 222.891 104.004 223.584C102.784 224.277 101.881 225.417 101.485 226.763C101.18 227.911 100.875 229.053 100.563 230.202C99.0664 235.754 97.492 241.287 95.8396 246.802C95.5985 247.596 95.3574 248.39 95.1162 249.184C91.471 261.196 87.4688 273.088 83.1096 284.859C82.5848 286.284 82.0529 287.705 81.5139 289.121C81.2515 289.816 80.9891 290.51 80.7196 291.205C80.2019 292.574 79.67 293.942 79.1381 295.311C78.8331 296.112 78.5211 296.914 78.2091 297.708C78.0034 298.211 77.8048 298.715 77.6062 299.211C75.5842 298.485 73.4892 297.981 71.3582 297.708L71.0178 297.665C69.3657 297.466 67.6949 297.481 66.0464 297.708C63.5791 297.996 61.2052 298.822 59.0925 300.128C56.9798 301.434 55.1798 303.188 53.8199 305.267C50.437 310.592 50.4796 318.208 55.2241 322.732C60.1104 327.391 67.5073 327.355 73.2589 324.441C76.3068 322.792 78.8768 320.384 80.7196 317.449C81.4256 316.385 82.0742 315.285 82.6628 314.152C82.8117 314.251 82.9606 314.35 83.1096 314.457C83.6769 314.854 84.2443 315.258 84.8046 315.655C88.069 318.02 91.5091 320.132 95.095 321.973C102.805 325.806 111.105 328.315 119.647 329.397C119.839 329.419 120.023 329.447 120.215 329.468C121.158 329.589 122.108 329.681 123.058 329.759C136.691 330.786 150.34 327.997 162.475 321.704C163.504 321.172 164.523 320.614 165.532 320.03C167.099 319.123 168.631 318.158 170.128 317.137C170.943 316.584 171.738 316.024 172.525 315.435C175.965 312.902 179.171 310.066 182.106 306.961C183.219 305.791 184.286 304.584 185.304 303.338C186.268 302.319 186.823 300.981 186.865 299.58C186.859 298.94 186.739 298.306 186.51 297.708V297.708ZM69.0746 314.598C69.2236 314.492 69.3725 314.379 69.5143 314.265C69.4718 314.372 69.2661 314.492 69.0747 314.598H69.0746ZM71.3511 312.308C71.188 312.492 71.0391 312.677 70.876 312.861C70.3797 313.416 69.8466 313.938 69.2803 314.421C69.2023 314.492 69.1172 314.563 69.0321 314.627C69.0312 314.627 69.0302 314.627 69.0293 314.627C69.0285 314.628 69.0277 314.628 69.027 314.629C69.0264 314.63 69.0258 314.63 69.0255 314.631C69.0251 314.632 69.025 314.633 69.025 314.634C68.9225 314.68 68.8231 314.732 68.7271 314.79C68.4221 314.974 68.1101 315.144 67.791 315.3C67.1661 315.531 66.5233 315.708 65.8691 315.832C65.3664 315.869 64.8618 315.874 64.3585 315.847H64.3443C63.9969 315.769 63.6537 315.675 63.316 315.563C63.1458 315.478 62.9827 315.379 62.8195 315.279C62.7557 315.223 62.6989 315.166 62.6635 315.13C62.5942 315.067 62.5302 314.998 62.4721 314.925C62.4721 314.924 62.4719 314.923 62.4716 314.922C62.4712 314.921 62.4707 314.92 62.4701 314.92C62.4694 314.919 62.4686 314.918 62.4677 314.918C62.4668 314.918 62.4659 314.918 62.465 314.918C62.3869 314.776 62.3018 314.634 62.2239 314.492C62.2198 314.488 62.2173 314.483 62.2168 314.478C62.16 314.301 62.1104 314.116 62.0678 313.932C62.0525 313.608 62.0548 313.284 62.0749 312.96C62.1701 312.507 62.2981 312.062 62.4579 311.627C62.6015 311.319 62.7649 311.021 62.9472 310.734C62.9614 310.706 63.0323 310.592 63.1104 310.464C63.1175 310.457 63.1174 310.457 63.1174 310.45C63.2238 310.33 63.3302 310.202 63.4437 310.089C63.6352 309.876 63.8408 309.692 64.0465 309.5C64.4465 309.238 64.8608 308.999 65.2876 308.784C65.9646 308.543 66.6594 308.356 67.3655 308.224C68.4068 308.141 69.4534 308.15 70.4931 308.252C71.4778 308.423 72.4494 308.662 73.4007 308.968C72.8241 310.087 72.1676 311.163 71.4363 312.188C71.4079 312.23 71.3795 312.273 71.3511 312.308V312.308ZM63.4649 309.975C63.4024 310.075 63.3287 310.168 63.2451 310.252C63.3013 310.147 63.3758 310.054 63.4649 309.975V309.975Z" fill="#C6D67D"/>
<path d="M165.192 225.288C165.128 227.514 165.064 229.741 165 231.967C164.866 236.91 164.726 241.855 164.582 246.802C164.433 252.368 164.277 257.932 164.114 263.494C164.036 266.366 163.955 269.238 163.873 272.109C163.653 279.846 163.435 287.58 163.22 295.311C163.199 296.112 163.171 296.907 163.149 297.708C163.043 301.544 162.936 305.38 162.83 309.216C162.71 313.379 162.591 317.541 162.476 321.704C162.39 324.824 162.303 327.946 162.213 331.071C161.575 353.712 160.937 376.354 160.298 398.995C160.271 400.397 159.702 401.735 158.711 402.726C157.719 403.718 156.382 404.287 154.979 404.314C153.572 404.302 152.226 403.738 151.231 402.743C150.236 401.749 149.672 400.402 149.66 398.995C150.015 386.26 150.374 373.525 150.738 360.789C151.058 349.273 151.381 337.758 151.71 326.242C151.816 322.448 151.923 318.652 152.029 314.854C152.192 309.138 152.353 303.423 152.511 297.708C152.533 296.907 152.561 296.112 152.582 295.311C152.596 294.609 152.618 293.914 152.639 293.212C152.951 282.115 153.263 271.015 153.575 259.913C153.703 255.545 153.826 251.174 153.944 246.802C154.086 241.817 154.228 236.834 154.369 231.854C154.433 229.663 154.49 227.479 154.554 225.288C154.581 223.886 155.15 222.548 156.142 221.557C157.133 220.565 158.471 219.996 159.873 219.969C161.28 219.981 162.626 220.545 163.621 221.54C164.616 222.534 165.18 223.881 165.192 225.288V225.288Z" fill="#C6D67D"/>
<path d="M456.974 226.763C451.397 247.88 444.73 268.694 437.002 289.122C434.87 294.757 432.688 300.381 430.356 305.936L430.892 304.666C429.851 307.312 428.522 309.836 426.928 312.191C426.82 312.343 426.709 312.493 426.597 312.642C427.148 311.937 427.253 311.798 426.911 312.224C426.731 312.438 426.553 312.651 426.367 312.859C425.87 313.415 425.338 313.937 424.772 314.422C424.629 314.543 424.485 314.663 424.338 314.779L425.003 314.262C424.926 314.444 424.384 314.686 424.215 314.789C423.669 315.119 423.099 315.408 422.51 315.653L423.781 315.117C422.815 315.506 421.808 315.782 420.78 315.94L422.194 315.75C421.183 315.89 420.159 315.901 419.146 315.783L420.56 315.973C419.731 315.859 418.919 315.64 418.145 315.322L419.416 315.859C419.002 315.679 418.604 315.466 418.225 315.223C418.033 315.098 417.441 314.65 418.214 315.241C419.018 315.855 418.318 315.293 418.152 315.13C418.014 314.994 417.89 314.846 417.755 314.708C417.13 314.067 418.462 315.812 418.037 315.062C417.809 314.686 417.602 314.298 417.414 313.901L417.95 315.172C417.706 314.567 417.533 313.936 417.434 313.291L417.624 314.705C417.522 313.904 417.522 313.093 417.622 312.291L417.432 313.705C417.562 312.81 417.799 311.934 418.137 311.095L417.601 312.365C417.837 311.801 418.116 311.257 418.436 310.736C418.584 310.466 418.757 310.212 418.953 309.976C418.988 309.987 418.053 311.049 418.549 310.513C418.679 310.372 418.8 310.225 418.931 310.086C419.141 309.863 419.367 309.66 419.588 309.449C420.329 308.744 418.551 310.134 419.406 309.576C420.026 309.169 420.678 308.813 421.356 308.513L420.085 309.049C421.221 308.583 422.411 308.263 423.628 308.099L422.214 308.289C423.737 308.114 425.277 308.132 426.796 308.343L425.382 308.153C427.305 308.445 429.185 308.974 430.978 309.727L429.708 309.191C433.53 310.832 436.915 313.268 440.295 315.657C443.559 318.02 446.998 320.131 450.582 321.972C458.293 325.806 466.593 328.316 475.136 329.399C487.388 330.9 499.82 329.3 511.293 324.747C522.765 320.193 532.91 312.832 540.797 303.339C541.76 302.318 542.314 300.98 542.355 299.578C542.345 298.169 541.786 296.82 540.797 295.817C538.846 294.026 535.16 293.521 533.275 295.817C531.489 297.998 529.569 300.064 527.526 302.006C526.572 302.91 525.593 303.787 524.588 304.636C524.014 305.121 523.433 305.597 522.843 306.062C522.564 306.283 521.695 306.869 523.03 305.922C522.724 306.14 522.43 306.376 522.129 306.599C517.662 309.892 512.822 312.644 507.709 314.8L508.98 314.264C503.493 316.565 497.731 318.144 491.838 318.96L493.252 318.77C487.189 319.567 481.048 319.558 474.987 318.743L476.401 318.933C470.342 318.101 464.417 316.487 458.773 314.132L460.043 314.668C454.597 312.259 449.428 309.265 444.628 305.74C442.13 303.89 439.495 302.232 436.747 300.78C433.545 299.145 430.078 298.092 426.508 297.668C419.814 296.881 412.992 299.488 409.312 305.27C405.926 310.592 405.969 318.207 410.712 322.732C415.597 327.392 422.994 327.353 428.751 324.438C434.295 321.63 437.625 315.797 439.967 310.297C445.237 297.92 449.903 285.256 454.25 272.528C458.551 259.936 462.451 247.216 465.95 234.369C466.384 232.778 466.811 231.185 467.232 229.591C467.942 226.904 466.338 223.691 463.517 223.049C462.157 222.699 460.715 222.891 459.495 223.584C458.274 224.277 457.37 225.417 456.974 226.763L456.974 226.763Z" fill="#C6D67D"/>
<path d="M510.045 225.287L508.13 293.214L506.226 360.787L505.149 398.996C505.161 400.402 505.725 401.748 506.72 402.743C507.715 403.738 509.061 404.302 510.468 404.314C511.87 404.287 513.207 403.718 514.199 402.726C515.191 401.735 515.76 400.398 515.787 398.996L517.701 331.069L519.606 263.496L520.683 225.287C520.671 223.88 520.107 222.535 519.112 221.54C518.117 220.545 516.771 219.981 515.364 219.969C513.962 219.996 512.624 220.565 511.633 221.557C510.641 222.548 510.072 223.885 510.045 225.287V225.287Z" fill="#C6D67D"/>
<path opacity="0.2" d="M325.939 380.031H327.591V304.837H366.121V303.189H327.591V271.461H357.346C356.91 270.907 356.461 270.359 355.999 269.818H327.591V248.863C327.045 248.63 326.494 248.405 325.939 248.193V269.818H293.563V242.968C293.009 242.994 292.462 243.032 291.912 243.078V269.818H266.083V249.786C265.528 250.031 264.982 250.29 264.44 250.561V269.818H242.727V271.461H264.44V303.189H242.727V304.837H264.44V380.031H266.083V304.837C269.475 304.836 272.834 305.504 275.968 306.801C279.102 308.099 281.95 310.001 284.348 312.399C286.747 314.797 288.649 317.645 289.947 320.778C291.245 323.912 291.912 327.27 291.912 330.662V380.031H293.563V304.837H325.939V380.031ZM266.083 303.189V271.461H291.912V303.189H266.083ZM293.563 303.189V271.461H294.211C298.378 271.462 302.504 272.282 306.354 273.877C310.203 275.472 313.701 277.809 316.647 280.755C319.594 283.701 321.931 287.199 323.525 291.048C325.119 294.898 325.94 299.023 325.939 303.189H293.563Z" fill="white"/>
<path d="M315.853 357.485C313.774 366.759 308.793 375.129 301.634 381.381C301.109 381.835 300.584 382.275 300.038 382.707C298.712 382.828 297.395 382.951 296.088 383.076C295.003 383.175 293.932 383.282 292.868 383.381L292.677 383.402L292.542 382.239L292.003 377.531C289.912 374.118 288.616 370.278 288.211 366.296C287.806 362.314 288.302 358.292 289.662 354.528C291.535 349.479 294.925 345.019 298.258 340.594C302.861 334.482 307.336 328.44 307.499 320.987C309.763 323.885 311.646 327.062 313.101 330.44C311.728 331.086 310.495 331.994 309.47 333.113C309.179 333.432 308.889 333.879 309.087 334.262C309.257 334.588 309.683 334.666 310.052 334.708C310.938 334.801 311.832 334.893 312.718 334.985C313.428 335.063 314.137 335.134 314.846 335.212C315.704 338.028 316.286 340.92 316.583 343.849C317.061 348.404 316.815 353.006 315.853 357.485V357.485Z" fill="#C6D67D"/>
<path d="M339.398 338.899C335.214 341.941 332.767 346.316 330.866 351.138C328.918 351.762 327.166 352.881 325.782 354.386C325.491 354.705 325.2 355.152 325.399 355.535C325.569 355.861 325.994 355.939 326.363 355.981C327.25 356.074 328.143 356.166 329.03 356.258C327.129 361.959 325.384 367.859 322.023 372.674C319.787 375.852 316.873 378.495 313.491 380.41C312.569 380.935 311.617 381.406 310.64 381.821C307.038 382.098 303.503 382.393 300.038 382.707C298.712 382.828 297.395 382.951 296.088 383.076C295.003 383.175 293.932 383.282 292.868 383.381C292.861 382.991 292.861 382.601 292.868 382.211C293.092 371.822 296.915 361.832 303.683 353.946C304.002 353.578 304.328 353.216 304.662 352.854C308.091 349.192 312.123 346.146 316.583 343.849C323.611 340.195 331.488 338.486 339.398 338.899V338.899Z" fill="#FFD179"/>
<path d="M297.314 379.438L296.499 381.849L296.088 383.076C295.003 383.175 293.932 383.282 292.868 383.381L292.676 383.402C291.499 383.523 290.329 383.643 289.159 383.764C288.854 383.409 288.549 383.048 288.251 382.679C280.849 373.716 277.295 362.188 278.368 350.614C279.44 339.039 285.051 328.36 293.974 320.909C293.038 325.809 294.13 330.504 295.924 335.162C295.733 335.24 295.549 335.318 295.371 335.403C293.998 336.05 292.765 336.958 291.74 338.077C291.449 338.396 291.159 338.843 291.357 339.226C291.527 339.552 291.953 339.63 292.322 339.672C293.208 339.764 294.102 339.857 294.988 339.949C295.698 340.027 296.407 340.098 297.116 340.176C297.449 340.211 297.783 340.247 298.116 340.282C298.166 340.388 298.208 340.488 298.258 340.594C300.279 344.976 302.456 349.38 303.683 353.946C303.991 355.092 304.232 356.255 304.406 357.428C304.953 361.394 304.599 365.432 303.371 369.242C302.143 373.052 300.073 376.537 297.314 379.438V379.438Z" fill="#FFD179"/>
<path d="M368.701 276.591C362.595 264.684 353.137 254.665 342.012 247.303C330.852 239.951 318.046 235.473 304.735 234.27C302.99 234.111 301.241 234.018 299.488 233.991C297.416 233.96 266.251 242.948 255.811 250.288C245.376 257.538 236.793 267.139 230.753 278.316C224.723 289.555 221.757 302.182 222.153 314.93C222.67 327.754 226.245 340.268 232.58 351.431C238.829 362.557 247.702 371.989 258.426 378.906C269.304 385.845 280.23 404.246 293.074 404.895C306.013 405.55 320.771 388.192 332.572 382.922C344.374 377.608 354.577 369.294 362.164 358.809C369.536 348.534 374.306 336.624 376.063 324.101C377.888 311.278 377.038 298.053 372.658 285.798C371.534 282.649 370.213 279.574 368.701 276.591C367.439 274.106 363.739 273.19 361.423 274.683C360.23 275.418 359.366 276.584 359.011 277.939C358.655 279.294 358.836 280.734 359.515 281.96C360.256 283.419 360.946 284.903 361.583 286.411L361.047 285.141C363.458 290.938 365.097 297.026 365.923 303.25L365.733 301.836C366.612 308.588 366.596 315.427 365.686 322.175L365.876 320.761C364.957 327.508 363.156 334.106 360.519 340.385L361.055 339.114C359.698 342.318 358.117 345.421 356.323 348.402C355.414 349.908 354.45 351.379 353.429 352.814C352.981 353.444 352.52 354.063 352.054 354.68C351.447 355.485 352.882 353.628 352.255 354.418C352.148 354.552 352.041 354.687 351.934 354.821C351.612 355.224 351.285 355.623 350.954 356.018C348.743 358.656 346.33 361.118 343.737 363.381C343.091 363.945 342.434 364.496 341.767 365.034C341.435 365.302 341.106 365.582 340.759 365.832C340.773 365.822 341.88 364.981 341.224 365.469C341.018 365.623 340.814 365.779 340.608 365.932C339.232 366.951 337.819 367.918 336.371 368.833C333.035 370.934 329.536 372.763 325.906 374.302L327.177 373.766C320.916 376.402 314.336 378.202 307.605 379.121L309.019 378.931C302.292 379.84 295.474 379.852 288.744 378.967L290.158 379.157C284.041 378.336 278.058 376.719 272.361 374.346L273.631 374.882C270.331 373.489 267.149 371.831 264.117 369.925C262.616 368.98 261.154 367.976 259.731 366.913C259.528 366.762 259.327 366.608 259.125 366.455C258.476 365.966 259.591 366.817 259.6 366.823C259.223 366.552 258.859 366.262 258.512 365.954C257.824 365.395 257.148 364.822 256.482 364.237C253.819 361.892 251.331 359.353 249.041 356.643C248.467 355.965 247.906 355.277 247.357 354.579C247.119 354.277 246.686 353.664 247.644 354.954C247.518 354.784 247.387 354.618 247.26 354.449C246.954 354.044 246.652 353.635 246.355 353.224C245.313 351.783 244.323 350.307 243.385 348.795C241.264 345.373 239.413 341.791 237.849 338.082L238.385 339.352C235.826 333.263 234.076 326.865 233.18 320.322L233.37 321.736C232.561 315.704 232.55 309.592 233.335 303.557L233.145 304.971C233.951 299.127 235.523 293.415 237.822 287.982L237.286 289.252C238.732 285.851 240.438 282.566 242.389 279.427C243.365 277.856 244.4 276.323 245.493 274.828C245.742 274.489 245.993 274.151 246.247 273.816C246.477 273.513 247.109 272.757 246.03 274.091C246.136 273.961 246.238 273.826 246.342 273.694C246.942 272.934 247.556 272.186 248.186 271.45C250.567 268.663 253.146 266.051 255.904 263.635C256.601 263.024 257.309 262.427 258.028 261.842C258.354 261.576 258.683 261.313 259.014 261.052C259.147 260.948 259.281 260.846 259.412 260.741C257.996 261.869 259.019 261.048 259.34 260.807C260.822 259.697 262.343 258.643 263.904 257.644C267.374 255.425 271.024 253.502 274.816 251.895L273.546 252.431C279.049 250.12 303.432 244.667 307.866 245.262L306.453 245.072C312.971 245.982 319.341 247.742 325.402 250.307L324.131 249.771C327.203 251.075 330.188 252.574 333.067 254.259C334.506 255.102 335.917 255.991 337.3 256.927C337.954 257.369 338.601 257.822 339.241 258.285C339.561 258.516 339.88 258.749 340.196 258.986C340.372 259.117 340.546 259.25 340.722 259.381C341.459 259.934 339.707 258.581 340.479 259.192C343.065 261.224 345.521 263.415 347.832 265.754C348.967 266.91 350.063 268.102 351.121 269.331C351.663 269.962 352.194 270.602 352.714 271.251C352.972 271.574 353.852 272.741 352.774 271.311C353.037 271.661 353.304 272.008 353.564 272.36C355.805 275.393 357.795 278.604 359.515 281.96C360.787 284.44 364.47 285.365 366.792 283.868C367.986 283.133 368.85 281.967 369.206 280.612C369.561 279.257 369.38 277.817 368.701 276.591Z" fill="#C6D67D"/>
<path d="M306.724 363.381C306.175 363.407 305.631 363.262 305.167 362.968C304.703 362.675 304.34 362.245 304.128 361.738C303.916 361.231 303.865 360.671 303.982 360.134C304.099 359.597 304.378 359.109 304.781 358.736C304.849 358.467 304.897 358.274 304.965 358.006C304.941 357.947 304.916 357.889 304.892 357.83C302.424 351.947 286.676 368.349 285.996 373.879C285.696 376.323 285.822 378.801 286.369 381.202C281.268 370.076 278.62 357.984 278.603 345.745C278.601 342.674 278.772 339.605 279.114 336.553C279.396 334.05 279.788 331.566 280.289 329.1C283.023 315.717 288.893 303.173 297.417 292.498C302.292 292.771 306.564 292.028 306.976 282.582C307.05 280.901 308.296 279.446 308.571 277.791C308.106 277.852 307.633 277.89 307.167 277.921C307.022 277.928 306.87 277.936 306.725 277.943L306.67 277.946C306.159 277.969 305.651 277.843 305.21 277.585C304.768 277.326 304.41 276.945 304.179 276.488C303.949 276.031 303.856 275.517 303.91 275.008C303.965 274.499 304.166 274.017 304.489 273.62C304.69 273.372 304.891 273.125 305.092 272.878C305.397 272.497 305.71 272.123 306.015 271.741C306.05 271.705 306.084 271.667 306.114 271.627C306.465 271.192 306.816 270.765 307.167 270.33C306.527 269.336 305.665 268.503 304.65 267.897C301.132 265.837 296.28 267.264 293.739 270.445C291.191 273.626 290.711 278.088 291.596 282.063C292.466 285.445 293.905 288.654 295.853 291.552C295.662 291.797 295.464 292.033 295.273 292.277C291.786 296.76 288.747 301.574 286.2 306.649C286.921 301.02 278.107 280.691 274.698 276.385C270.604 271.212 262.209 273.47 261.487 280.026C261.48 280.09 261.473 280.153 261.467 280.217C261.973 280.502 262.469 280.805 262.954 281.126C263.563 281.533 264.035 282.114 264.308 282.794C264.581 283.474 264.642 284.22 264.484 284.935C264.325 285.65 263.954 286.301 263.42 286.802C262.885 287.303 262.212 287.631 261.488 287.742L261.413 287.754C254.637 297.428 276.361 322.609 281.799 316.955C279.24 324.208 277.634 331.762 277.023 339.429C276.677 343.951 276.698 348.495 277.084 353.015L277.061 352.855C275.853 343.011 255.125 328.375 249.072 329.594C245.585 330.296 242.151 330.136 242.68 333.653C242.689 333.709 242.697 333.766 242.706 333.822C243.645 334.204 244.56 334.645 245.445 335.141C245.951 335.427 246.447 335.73 246.932 336.051C247.541 336.458 248.013 337.039 248.286 337.719C248.559 338.399 248.62 339.145 248.462 339.86C248.303 340.575 247.932 341.226 247.398 341.727C246.863 342.228 246.19 342.555 245.466 342.667L245.391 342.678C245.338 342.686 245.292 342.694 245.239 342.701C242.154 353.314 265.031 370.441 278.938 364.991H278.946C280.324 370.98 282.321 376.809 284.905 382.384H306.191C306.267 382.148 306.336 381.904 306.404 381.667C304.434 381.791 302.456 381.673 300.514 381.316C302.094 379.379 303.673 377.426 305.252 375.488C305.287 375.452 305.321 375.414 305.351 375.374C306.152 374.382 306.961 373.398 307.762 372.406L307.763 372.405C307.805 369.365 307.457 366.333 306.725 363.382L306.724 363.381ZM282.349 315.437L282.36 315.422L282.349 315.452V315.437ZM277.634 357.935L277.45 357.523C277.458 357.226 277.458 356.928 277.45 356.623C277.45 356.539 277.435 356.455 277.435 356.371C277.504 356.898 277.565 357.424 277.641 357.95L277.634 357.935Z" fill="#C6D67D"/>
<path d="M67.5499 319.094C71.8584 319.094 75.351 315.602 75.351 311.294C75.351 306.986 71.8584 303.494 67.5499 303.494C63.2415 303.494 59.7488 306.986 59.7488 311.294C59.7488 315.602 63.2415 319.094 67.5499 319.094Z" fill="#C6D67D"/>
<path d="M161.163 404.186C165.472 404.186 168.965 400.694 168.965 396.386C168.965 392.078 165.472 388.586 161.163 388.586C156.855 388.586 153.362 392.078 153.362 396.386C153.362 400.694 156.855 404.186 161.163 404.186Z" fill="#C6D67D"/>
<path d="M516.47 404.186C520.778 404.186 524.271 400.694 524.271 396.386C524.271 392.078 520.778 388.586 516.47 388.586C512.161 388.586 508.668 392.078 508.668 396.386C508.668 400.694 512.161 404.186 516.47 404.186Z" fill="#C6D67D"/>
<path d="M535.618 304.912C539.926 304.912 543.419 301.42 543.419 297.112C543.419 292.804 539.926 289.312 535.618 289.312C531.31 289.312 527.817 292.804 527.817 297.112C527.817 301.42 531.31 304.912 535.618 304.912Z" fill="#C6D67D"/>
<path d="M512.924 232.584C517.232 232.584 520.725 229.092 520.725 224.784C520.725 220.476 517.232 216.984 512.924 216.984C508.615 216.984 505.123 220.476 505.123 224.784C505.123 229.092 508.615 232.584 512.924 232.584Z" fill="#C6D67D"/>
<path d="M187.404 297.112C187.399 299.105 186.628 301.019 185.251 302.459C183.874 303.899 181.996 304.755 180.006 304.849C178.015 304.943 176.065 304.269 174.558 302.965C173.051 301.661 172.103 299.828 171.91 297.845C171.717 295.862 172.294 293.881 173.522 292.311C174.75 290.742 176.534 289.704 178.505 289.413C180.476 289.122 182.484 289.6 184.113 290.748C185.741 291.896 186.866 293.626 187.255 295.58C187.355 296.085 187.405 296.598 187.404 297.112V297.112Z" fill="#C6D67D"/>
<path d="M343.426 255.275C347.735 255.275 351.228 251.783 351.228 247.475C351.228 243.167 347.735 239.675 343.426 239.675C339.118 239.675 335.625 243.167 335.625 247.475C335.625 251.783 339.118 255.275 343.426 255.275Z" fill="#C6D67D"/>
<path d="M266.124 247.475C266.12 249.468 265.349 251.382 263.972 252.822C262.595 254.262 260.717 255.118 258.726 255.212C256.736 255.306 254.785 254.632 253.278 253.328C251.772 252.024 250.824 250.191 250.631 248.208C250.438 246.225 251.015 244.244 252.242 242.674C253.47 241.105 255.254 240.067 257.225 239.776C259.197 239.485 261.204 239.963 262.833 241.111C264.462 242.259 265.587 243.989 265.975 245.944C266.075 246.448 266.125 246.961 266.124 247.475V247.475Z" fill="#C6D67D"/>
<path d="M165.419 224.784C165.414 226.777 164.643 228.691 163.266 230.131C161.889 231.571 160.011 232.427 158.021 232.521C156.03 232.615 154.08 231.941 152.573 230.637C151.066 229.333 150.118 227.5 149.925 225.517C149.732 223.534 150.309 221.553 151.537 219.983C152.764 218.414 154.548 217.376 156.52 217.085C158.491 216.794 160.499 217.272 162.128 218.42C163.756 219.568 164.881 221.298 165.27 223.252C165.37 223.757 165.42 224.27 165.419 224.784V224.784Z" fill="#C6D67D"/>
<path d="M424.984 321.931C429.292 321.931 432.785 318.438 432.785 314.131C432.785 309.823 429.292 306.33 424.984 306.33C420.675 306.33 417.183 309.823 417.183 314.131C417.183 318.438 420.675 321.931 424.984 321.931Z" fill="#C6D67D"/>
<path d="M302.293 251.021C308.56 251.021 313.64 245.941 313.64 239.675C313.64 233.409 308.56 228.33 302.293 228.33C296.026 228.33 290.946 233.409 290.946 239.675C290.946 245.941 296.026 251.021 302.293 251.021Z" fill="#C6D67D"/>
<path d="M609.156 404.782L0.844419 405C0.733527 405 0.623719 404.978 0.521269 404.936C0.418819 404.893 0.325736 404.831 0.247324 404.753C0.168912 404.674 0.106705 404.581 0.0642685 404.479C0.0218323 404.376 0 404.267 0 404.156C0 404.045 0.0218323 403.935 0.0642685 403.833C0.106705 403.73 0.168912 403.637 0.247324 403.559C0.325736 403.48 0.418819 403.418 0.521269 403.376C0.623719 403.333 0.733527 403.311 0.844419 403.311L609.156 403.093C609.379 403.094 609.593 403.183 609.751 403.342C609.909 403.5 609.998 403.714 609.998 403.938C609.998 404.161 609.909 404.376 609.751 404.534C609.593 404.692 609.379 404.781 609.156 404.782V404.782Z" fill="#CACACA"/>
</g>
<defs>
<clipPath id="clip0_132_325">
<rect width="610" height="405" fill="white"/>
</clipPath>
</defs>
</svg>
